<?xml version="1.0" encoding="UTF-8"?>
<svg xmlns="http://www.w3.org/2000/svg" xmlns:xlink="http://www.w3.org/1999/xlink" width="62px" height="16px" viewBox="0 0 16 16" version="1.1">
<g id="surface1">
<path style=" stroke:none;fill-rule:nonzero;fill:rgb(0%,0%,0%);fill-opacity:1;" d="M 7.332031 16.015625 C 4.890625 16.015625 2.453125 16.015625 0.015625 16.015625 C 0.015625 10.683594 0.015625 5.351562 0.015625 0.015625 C 5.347656 0.015625 10.679688 0.015625 16.011719 0.015625 C 16.011719 5.347656 16.011719 10.679688 16.011719 16.015625 C 13.121094 16.015625 10.230469 16.015625 7.332031 16.015625 M 6.164062 11.152344 C 6.152344 11.082031 6.199219 11.097656 6.234375 11.097656 C 7.421875 11.097656 8.605469 11.097656 9.792969 11.097656 C 9.816406 11.097656 9.839844 11.097656 9.871094 11.101562 C 9.871094 11.195312 9.871094 11.285156 9.871094 11.375 C 10.804688 11.375 11.730469 11.375 12.667969 11.375 C 12.667969 11.164062 12.667969 10.953125 12.667969 10.738281 C 13.007812 10.738281 13.339844 10.738281 13.679688 10.738281 C 13.671875 10.714844 13.667969 10.699219 13.65625 10.6875 C 13.621094 10.628906 13.578125 10.574219 13.539062 10.515625 C 13.363281 10.257812 13.183594 10 13.011719 9.742188 C 13 9.722656 13 9.683594 13.011719 9.664062 C 13.066406 9.578125 13.128906 9.492188 13.1875 9.410156 C 13.3125 9.222656 13.441406 9.039062 13.566406 8.855469 C 13.601562 8.800781 13.636719 8.742188 13.675781 8.679688 C 13.394531 8.679688 13.128906 8.679688 12.859375 8.679688 C 12.859375 7.714844 12.859375 6.753906 12.859375 5.789062 C 12.777344 5.789062 12.699219 5.789062 12.613281 5.789062 C 12.644531 5.726562 12.570312 5.644531 12.675781 5.617188 C 12.675781 5.519531 12.675781 5.421875 12.675781 5.324219 C 12.609375 5.324219 12.542969 5.324219 12.476562 5.324219 C 12.476562 5.425781 12.476562 5.523438 12.476562 5.625 C 12.496094 5.628906 12.515625 5.632812 12.53125 5.636719 C 12.53125 5.6875 12.53125 5.738281 12.53125 5.792969 C 11.792969 5.792969 11.0625 5.792969 10.324219 5.792969 C 10.324219 6.757812 10.324219 7.71875 10.324219 8.675781 C 9.222656 8.675781 8.132812 8.675781 7.035156 8.675781 C 7.035156 7.757812 7.035156 6.839844 7.035156 5.929688 C 5.746094 5.929688 4.46875 5.929688 3.183594 5.929688 C 3.183594 6.851562 3.183594 7.761719 3.183594 8.683594 C 2.910156 8.683594 2.640625 8.683594 2.359375 8.683594 C 2.378906 8.71875 2.386719 8.742188 2.402344 8.765625 C 2.601562 9.054688 2.800781 9.34375 3.003906 9.632812 C 3.03125 9.675781 3.042969 9.710938 3.003906 9.761719 C 2.914062 9.882812 2.832031 10.007812 2.746094 10.132812 C 2.636719 10.300781 2.523438 10.464844 2.414062 10.632812 C 2.390625 10.660156 2.378906 10.695312 2.351562 10.742188 C 2.707031 10.742188 3.03125 10.742188 3.367188 10.742188 C 3.367188 10.960938 3.367188 11.167969 3.367188 11.375 C 4.300781 11.375 5.230469 11.375 6.164062 11.375 C 6.164062 11.300781 6.164062 11.234375 6.164062 11.152344 M 9.179688 7.6875 C 9.390625 7.6875 9.605469 7.6875 9.816406 7.6875 C 9.816406 6.695312 9.816406 5.710938 9.816406 4.730469 C 9.210938 4.730469 8.609375 4.730469 8.003906 4.730469 C 8.003906 5.71875 8.003906 6.703125 8.003906 7.6875 C 8.394531 7.6875 8.777344 7.6875 9.179688 7.6875 M 8.542969 7.75 C 8.511719 7.75 8.480469 7.75 8.449219 7.75 C 8.449219 7.851562 8.449219 7.945312 8.449219 8.046875 C 8.515625 8.046875 8.574219 8.046875 8.640625 8.046875 C 8.640625 8.179688 8.640625 8.304688 8.640625 8.425781 C 8.683594 8.425781 8.714844 8.425781 8.757812 8.425781 C 8.757812 8.300781 8.757812 8.175781 8.757812 8.042969 C 8.816406 8.042969 8.875 8.042969 8.929688 8.042969 C 8.929688 7.941406 8.929688 7.847656 8.929688 7.75 C 8.800781 7.75 8.679688 7.75 8.542969 7.75 M 12.460938 5.03125 C 12.460938 5.117188 12.460938 5.203125 12.460938 5.285156 C 12.539062 5.285156 12.609375 5.285156 12.679688 5.285156 C 12.679688 5.195312 12.683594 5.117188 12.679688 5.035156 C 12.679688 5.015625 12.644531 4.976562 12.632812 4.980469 C 12.578125 5 12.5 4.929688 12.460938 5.03125 M 12.460938 4.691406 C 12.460938 4.777344 12.460938 4.863281 12.460938 4.941406 C 12.539062 4.941406 12.609375 4.941406 12.675781 4.941406 C 12.675781 4.847656 12.675781 4.757812 12.675781 4.660156 C 12.601562 4.667969 12.53125 4.671875 12.460938 4.691406 Z M 12.460938 4.691406 "/>
<path style=" stroke:none;fill-rule:nonzero;fill:rgb(96.470588%,60.784314%,14.901961%);fill-opacity:1;" d="M 6.164062 11.15625 C 6.164062 11.234375 6.164062 11.300781 6.164062 11.375 C 5.230469 11.375 4.300781 11.375 3.367188 11.375 C 3.367188 11.167969 3.367188 10.960938 3.367188 10.742188 C 3.03125 10.742188 2.707031 10.742188 2.351562 10.742188 C 2.378906 10.695312 2.390625 10.660156 2.414062 10.632812 C 2.523438 10.464844 2.636719 10.300781 2.746094 10.132812 C 2.832031 10.007812 2.914062 9.882812 3.003906 9.761719 C 3.042969 9.710938 3.03125 9.675781 3.003906 9.632812 C 2.800781 9.34375 2.601562 9.054688 2.402344 8.765625 C 2.386719 8.742188 2.378906 8.71875 2.359375 8.683594 C 2.640625 8.683594 2.910156 8.683594 3.183594 8.683594 C 3.183594 7.761719 3.183594 6.851562 3.183594 5.929688 C 4.46875 5.929688 5.746094 5.929688 7.035156 5.929688 C 7.035156 6.839844 7.035156 7.757812 7.035156 8.675781 C 8.132812 8.675781 9.222656 8.675781 10.324219 8.675781 C 10.324219 7.71875 10.324219 6.757812 10.324219 5.792969 C 11.0625 5.792969 11.792969 5.792969 12.53125 5.792969 C 12.53125 5.738281 12.53125 5.6875 12.53125 5.636719 C 12.515625 5.632812 12.496094 5.628906 12.476562 5.625 C 12.476562 5.523438 12.476562 5.425781 12.476562 5.324219 C 12.542969 5.324219 12.609375 5.324219 12.675781 5.324219 C 12.675781 5.421875 12.675781 5.519531 12.675781 5.617188 C 12.570312 5.644531 12.644531 5.726562 12.613281 5.789062 C 12.699219 5.789062 12.777344 5.789062 12.859375 5.789062 C 12.859375 6.753906 12.859375 7.714844 12.859375 8.679688 C 13.128906 8.679688 13.394531 8.679688 13.675781 8.679688 C 13.636719 8.742188 13.601562 8.800781 13.566406 8.855469 C 13.441406 9.039062 13.3125 9.222656 13.1875 9.410156 C 13.128906 9.492188 13.066406 9.578125 13.011719 9.664062 C 13 9.683594 13 9.722656 13.011719 9.742188 C 13.183594 10 13.363281 10.257812 13.539062 10.515625 C 13.578125 10.574219 13.621094 10.628906 13.65625 10.6875 C 13.667969 10.699219 13.671875 10.714844 13.679688 10.738281 C 13.339844 10.738281 13.007812 10.738281 12.667969 10.738281 C 12.667969 10.953125 12.667969 11.164062 12.667969 11.375 C 11.730469 11.375 10.804688 11.375 9.871094 11.375 C 9.871094 11.285156 9.871094 11.195312 9.871094 11.101562 C 9.839844 11.097656 9.816406 11.097656 9.792969 11.097656 C 8.605469 11.097656 7.421875 11.097656 6.234375 11.097656 C 6.199219 11.097656 6.152344 11.082031 6.164062 11.15625 M 6.386719 7.222656 C 6.386719 7.125 6.394531 7.023438 6.382812 6.925781 C 6.363281 6.738281 6.222656 6.5625 6.015625 6.5625 C 5.339844 6.5625 4.660156 6.5625 3.980469 6.5625 C 3.957031 6.5625 3.929688 6.566406 3.910156 6.574219 C 3.699219 6.648438 3.621094 6.792969 3.617188 6.988281 C 3.609375 7.367188 3.609375 7.746094 3.617188 8.128906 C 3.621094 8.277344 3.679688 8.410156 3.824219 8.492188 C 3.90625 8.539062 3.992188 8.542969 4.074219 8.546875 C 4.410156 8.550781 4.742188 8.550781 5.074219 8.546875 C 5.398438 8.546875 5.71875 8.542969 6.039062 8.53125 C 6.230469 8.523438 6.378906 8.347656 6.382812 8.164062 C 6.390625 7.855469 6.386719 7.546875 6.386719 7.222656 M 11.199219 7.5625 C 11.199219 7.867188 11.199219 8.167969 11.199219 8.46875 C 11.679688 8.46875 12.148438 8.46875 12.617188 8.46875 C 12.617188 7.6875 12.617188 6.914062 12.617188 6.136719 C 12.144531 6.136719 11.675781 6.136719 11.199219 6.136719 C 11.199219 6.609375 11.199219 7.078125 11.199219 7.5625 M 3.40625 9.503906 C 3.40625 9.738281 3.40625 9.96875 3.40625 10.195312 C 3.617188 10.195312 3.820312 10.210938 4.015625 10.191406 C 4.3125 10.160156 4.515625 9.921875 4.53125 9.613281 C 4.550781 9.296875 4.378906 9.023438 4.089844 8.96875 C 3.867188 8.925781 3.640625 8.933594 3.40625 8.921875 C 3.40625 9.125 3.40625 9.308594 3.40625 9.503906 M 7.347656 9.359375 C 7.316406 9.296875 7.277344 9.289062 7.160156 9.316406 C 7.160156 9.59375 7.160156 9.875 7.160156 10.15625 C 7.160156 10.171875 7.164062 10.1875 7.167969 10.203125 C 7.234375 10.203125 7.300781 10.203125 7.375 10.203125 C 7.375 10.175781 7.375 10.148438 7.375 10.121094 C 7.375 9.945312 7.371094 9.769531 7.375 9.597656 C 7.378906 9.5625 7.394531 9.523438 7.417969 9.5 C 7.46875 9.453125 7.535156 9.4375 7.601562 9.460938 C 7.671875 9.488281 7.683594 9.550781 7.683594 9.613281 C 7.6875 9.773438 7.6875 9.933594 7.6875 10.09375 C 7.6875 10.132812 7.6875 10.167969 7.6875 10.203125 C 7.761719 10.203125 7.828125 10.203125 7.898438 10.203125 C 7.898438 10.019531 7.898438 9.84375 7.898438 9.664062 C 7.898438 9.632812 7.898438 9.601562 7.90625 9.570312 C 7.925781 9.488281 7.992188 9.445312 8.078125 9.453125 C 8.15625 9.457031 8.203125 9.503906 8.207031 9.589844 C 8.210938 9.695312 8.210938 9.800781 8.210938 9.90625 C 8.210938 10.003906 8.210938 10.101562 8.210938 10.203125 C 8.285156 10.203125 8.351562 10.203125 8.425781 10.203125 C 8.425781 10.171875 8.425781 10.140625 8.425781 10.113281 C 8.421875 9.9375 8.429688 9.761719 8.421875 9.589844 C 8.410156 9.382812 8.265625 9.265625 8.078125 9.289062 C 7.972656 9.304688 7.890625 9.347656 7.835938 9.429688 C 7.785156 9.386719 7.742188 9.332031 7.6875 9.308594 C 7.589844 9.261719 7.496094 9.296875 7.410156 9.359375 C 7.398438 9.371094 7.371094 9.367188 7.347656 9.359375 M 9.902344 9.203125 C 9.964844 9.246094 9.996094 9.226562 10.070312 9.085938 C 9.835938 8.855469 9.414062 8.867188 9.191406 9.109375 C 8.949219 9.378906 8.972656 9.863281 9.242188 10.085938 C 9.488281 10.292969 9.910156 10.257812 10.089844 10.015625 C 10.074219 10 10.0625 9.984375 10.046875 9.96875 C 9.980469 9.890625 9.980469 9.890625 9.894531 9.953125 C 9.675781 10.105469 9.363281 9.996094 9.285156 9.738281 C 9.265625 9.675781 9.261719 9.605469 9.261719 9.535156 C 9.273438 9.183594 9.589844 9.015625 9.902344 9.203125 M 12.058594 9.339844 C 12.007812 9.273438 11.945312 9.316406 11.886719 9.304688 C 11.886719 9.707031 11.886719 10.101562 11.886719 10.5 C 11.957031 10.5 12.019531 10.5 12.097656 10.5 C 12.097656 10.382812 12.097656 10.269531 12.097656 10.148438 C 12.117188 10.15625 12.125 10.160156 12.132812 10.164062 C 12.316406 10.269531 12.523438 10.222656 12.628906 10.042969 C 12.742188 9.84375 12.734375 9.636719 12.628906 9.433594 C 12.566406 9.316406 12.433594 9.261719 12.304688 9.300781 C 12.226562 9.320312 12.15625 9.363281 12.078125 9.398438 C 12.074219 9.386719 12.070312 9.367188 12.058594 9.339844 M 10.277344 9.425781 C 10.261719 9.441406 10.25 9.453125 10.238281 9.472656 C 10.125 9.640625 10.136719 9.914062 10.261719 10.070312 C 10.375 10.210938 10.605469 10.265625 10.789062 10.1875 C 10.972656 10.109375 11.046875 9.957031 11.050781 9.765625 C 11.054688 9.578125 10.992188 9.414062 10.804688 9.332031 C 10.617188 9.253906 10.4375 9.273438 10.277344 9.425781 M 5.496094 9.851562 C 5.496094 9.832031 5.496094 9.8125 5.496094 9.792969 C 5.671875 9.792969 5.84375 9.789062 6.011719 9.792969 C 6.078125 9.796875 6.097656 9.765625 6.101562 9.707031 C 6.101562 9.535156 6.015625 9.382812 5.878906 9.324219 C 5.722656 9.257812 5.527344 9.285156 5.410156 9.402344 C 5.261719 9.550781 5.25 9.730469 5.304688 9.917969 C 5.355469 10.097656 5.480469 10.195312 5.660156 10.21875 C 5.820312 10.234375 5.96875 10.199219 6.085938 10.082031 C 6.019531 9.980469 6.011719 9.957031 5.886719 10.023438 C 5.75 10.097656 5.542969 10.074219 5.496094 9.851562 M 6.40625 9.328125 C 6.351562 9.359375 6.296875 9.386719 6.246094 9.417969 C 6.300781 9.542969 6.328125 9.554688 6.433594 9.496094 C 6.445312 9.488281 6.457031 9.480469 6.472656 9.476562 C 6.542969 9.445312 6.617188 9.429688 6.683594 9.480469 C 6.753906 9.53125 6.742188 9.609375 6.738281 9.683594 C 6.710938 9.6875 6.683594 9.6875 6.660156 9.691406 C 6.558594 9.714844 6.453125 9.730469 6.355469 9.765625 C 6.269531 9.796875 6.207031 9.863281 6.203125 9.964844 C 6.195312 10.136719 6.332031 10.253906 6.511719 10.214844 C 6.597656 10.199219 6.679688 10.152344 6.761719 10.121094 C 6.808594 10.214844 6.824219 10.222656 6.945312 10.199219 C 6.945312 9.988281 6.953125 9.777344 6.941406 9.570312 C 6.933594 9.421875 6.835938 9.316406 6.683594 9.300781 C 6.597656 9.289062 6.503906 9.316406 6.40625 9.328125 M 11.269531 9.304688 C 11.210938 9.296875 11.222656 9.335938 11.222656 9.371094 C 11.222656 9.628906 11.222656 9.886719 11.222656 10.148438 C 11.222656 10.164062 11.222656 10.183594 11.226562 10.203125 C 11.296875 10.203125 11.363281 10.203125 11.433594 10.203125 C 11.433594 10.035156 11.433594 9.871094 11.433594 9.703125 C 11.4375 9.570312 11.515625 9.484375 11.648438 9.5 C 11.726562 9.507812 11.757812 9.484375 11.75 9.40625 C 11.75 9.394531 11.753906 9.378906 11.753906 9.363281 C 11.765625 9.316406 11.738281 9.300781 11.703125 9.292969 C 11.613281 9.277344 11.542969 9.308594 11.484375 9.375 C 11.464844 9.394531 11.449219 9.417969 11.425781 9.445312 C 11.390625 9.304688 11.390625 9.304688 11.269531 9.304688 M 5.179688 9.292969 C 5.050781 9.269531 4.976562 9.347656 4.90625 9.445312 C 4.859375 9.292969 4.835938 9.277344 4.703125 9.316406 C 4.703125 9.609375 4.703125 9.90625 4.703125 10.203125 C 4.773438 10.203125 4.839844 10.203125 4.910156 10.203125 C 4.910156 10.035156 4.910156 9.871094 4.910156 9.703125 C 4.910156 9.566406 4.996094 9.484375 5.128906 9.5 C 5.210938 9.507812 5.234375 9.476562 5.226562 9.40625 C 5.222656 9.367188 5.261719 9.316406 5.179688 9.292969 M 6.695312 7.902344 C 6.695312 8.011719 6.695312 8.121094 6.699219 8.230469 C 6.699219 8.25 6.714844 8.292969 6.726562 8.292969 C 6.765625 8.292969 6.769531 8.261719 6.769531 8.226562 C 6.769531 7.773438 6.769531 7.324219 6.769531 6.871094 C 6.769531 6.851562 6.746094 6.808594 6.734375 6.808594 C 6.691406 6.808594 6.695312 6.84375 6.695312 6.875 C 6.695312 7.214844 6.695312 7.550781 6.695312 7.902344 M 11.214844 8.636719 C 11.183594 8.675781 11.207031 8.679688 11.238281 8.679688 C 11.328125 8.679688 11.417969 8.679688 11.503906 8.679688 C 11.605469 8.679688 11.707031 8.679688 11.804688 8.679688 C 11.808594 8.671875 11.808594 8.664062 11.8125 8.652344 C 11.792969 8.648438 11.773438 8.636719 11.753906 8.636719 C 11.578125 8.636719 11.402344 8.636719 11.214844 8.636719 Z M 11.214844 8.636719 "/>
<path style=" stroke:none;fill-rule:nonzero;fill:rgb(96.862745%,60.784314%,14.901961%);fill-opacity:1;" d="M 9.171875 7.6875 C 8.777344 7.6875 8.394531 7.6875 8.003906 7.6875 C 8.003906 6.703125 8.003906 5.71875 8.003906 4.730469 C 8.609375 4.730469 9.210938 4.730469 9.816406 4.730469 C 9.816406 5.710938 9.816406 6.695312 9.816406 7.6875 C 9.605469 7.6875 9.390625 7.6875 9.171875 7.6875 M 9.082031 6.777344 C 9.082031 6.839844 9.082031 6.898438 9.082031 6.957031 C 9.230469 6.957031 9.367188 6.957031 9.507812 6.957031 C 9.507812 6.855469 9.507812 6.753906 9.507812 6.65625 C 9.363281 6.65625 9.222656 6.65625 9.082031 6.65625 C 9.082031 6.695312 9.082031 6.730469 9.082031 6.777344 M 9.082031 7.394531 C 9.089844 7.40625 9.101562 7.421875 9.109375 7.421875 C 9.242188 7.421875 9.371094 7.421875 9.507812 7.421875 C 9.507812 7.320312 9.507812 7.226562 9.507812 7.128906 C 9.363281 7.128906 9.226562 7.128906 9.082031 7.128906 C 9.082031 7.214844 9.082031 7.300781 9.082031 7.394531 Z M 9.082031 7.394531 "/>
<path style=" stroke:none;fill-rule:nonzero;fill:rgb(96.862745%,60.784314%,14.901961%);fill-opacity:1;" d="M 8.550781 7.75 C 8.679688 7.75 8.800781 7.75 8.929688 7.75 C 8.929688 7.847656 8.929688 7.941406 8.929688 8.042969 C 8.875 8.042969 8.816406 8.042969 8.757812 8.042969 C 8.757812 8.175781 8.757812 8.300781 8.757812 8.425781 C 8.714844 8.425781 8.683594 8.425781 8.640625 8.425781 C 8.640625 8.304688 8.640625 8.179688 8.640625 8.046875 C 8.574219 8.046875 8.515625 8.046875 8.449219 8.046875 C 8.449219 7.945312 8.449219 7.851562 8.449219 7.75 C 8.480469 7.75 8.511719 7.75 8.550781 7.75 Z M 8.550781 7.75 "/>
<path style=" stroke:none;fill-rule:nonzero;fill:rgb(96.862745%,60.784314%,14.901961%);fill-opacity:1;" d="M 12.460938 5.023438 C 12.5 4.929688 12.578125 5 12.632812 4.980469 C 12.644531 4.976562 12.679688 5.015625 12.679688 5.035156 C 12.683594 5.117188 12.679688 5.195312 12.679688 5.285156 C 12.609375 5.285156 12.539062 5.285156 12.460938 5.285156 C 12.460938 5.203125 12.460938 5.117188 12.460938 5.023438 Z M 12.460938 5.023438 "/>
<path style=" stroke:none;fill-rule:nonzero;fill:rgb(96.862745%,60.784314%,14.901961%);fill-opacity:1;" d="M 12.460938 4.683594 C 12.53125 4.671875 12.601562 4.667969 12.675781 4.660156 C 12.675781 4.757812 12.675781 4.847656 12.675781 4.941406 C 12.609375 4.941406 12.539062 4.941406 12.460938 4.941406 C 12.460938 4.863281 12.460938 4.777344 12.460938 4.683594 Z M 12.460938 4.683594 "/>
<path style=" stroke:none;fill-rule:nonzero;fill:rgb(0%,0%,0%);fill-opacity:1;" d="M 6.386719 7.230469 C 6.386719 7.546875 6.390625 7.855469 6.382812 8.164062 C 6.378906 8.347656 6.230469 8.523438 6.039062 8.53125 C 5.71875 8.542969 5.398438 8.546875 5.074219 8.546875 C 4.742188 8.550781 4.410156 8.550781 4.074219 8.546875 C 3.992188 8.542969 3.90625 8.539062 3.824219 8.492188 C 3.679688 8.410156 3.621094 8.277344 3.617188 8.128906 C 3.609375 7.746094 3.609375 7.367188 3.617188 6.988281 C 3.621094 6.792969 3.699219 6.648438 3.910156 6.574219 C 3.929688 6.566406 3.957031 6.5625 3.980469 6.5625 C 4.660156 6.5625 5.339844 6.5625 6.015625 6.5625 C 6.222656 6.5625 6.363281 6.738281 6.382812 6.925781 C 6.394531 7.023438 6.386719 7.125 6.386719 7.230469 Z M 6.386719 7.230469 "/>
<path style=" stroke:none;fill-rule:nonzero;fill:rgb(0%,0%,0%);fill-opacity:1;" d="M 11.199219 7.554688 C 11.199219 7.078125 11.199219 6.609375 11.199219 6.136719 C 11.675781 6.136719 12.144531 6.136719 12.617188 6.136719 C 12.617188 6.914062 12.617188 7.6875 12.617188 8.46875 C 12.148438 8.46875 11.679688 8.46875 11.199219 8.46875 C 11.199219 8.167969 11.199219 7.867188 11.199219 7.554688 M 11.378906 7.085938 C 11.429688 7.105469 11.480469 7.136719 11.53125 7.136719 C 11.773438 7.144531 12.015625 7.136719 12.253906 7.144531 C 12.363281 7.144531 12.433594 7.066406 12.429688 6.96875 C 12.425781 6.796875 12.425781 6.628906 12.429688 6.457031 C 12.433594 6.300781 12.355469 6.253906 12.226562 6.253906 C 11.996094 6.25 11.765625 6.25 11.53125 6.253906 C 11.410156 6.253906 11.347656 6.316406 11.347656 6.4375 C 11.347656 6.605469 11.347656 6.777344 11.347656 6.949219 C 11.351562 6.988281 11.367188 7.03125 11.378906 7.085938 Z M 11.378906 7.085938 "/>
<path style=" stroke:none;fill-rule:nonzero;fill:rgb(2.352941%,2.352941%,50.980392%);fill-opacity:1;" d="M 3.40625 9.496094 C 3.40625 9.308594 3.40625 9.125 3.40625 8.921875 C 3.640625 8.933594 3.867188 8.925781 4.089844 8.96875 C 4.378906 9.023438 4.550781 9.296875 4.53125 9.613281 C 4.515625 9.921875 4.3125 10.160156 4.015625 10.191406 C 3.820312 10.210938 3.617188 10.195312 3.40625 10.195312 C 3.40625 9.96875 3.40625 9.738281 3.40625 9.496094 M 3.640625 9.578125 C 3.640625 9.722656 3.640625 9.867188 3.640625 10.015625 C 3.734375 10.015625 3.820312 10.015625 3.902344 10.015625 C 4.105469 10.011719 4.25 9.890625 4.285156 9.683594 C 4.332031 9.433594 4.238281 9.222656 4.046875 9.152344 C 4.035156 9.148438 4.019531 9.140625 4.003906 9.140625 C 3.886719 9.132812 3.765625 9.128906 3.640625 9.121094 C 3.640625 9.277344 3.640625 9.421875 3.640625 9.578125 Z M 3.640625 9.578125 "/>
<path style=" stroke:none;fill-rule:nonzero;fill:rgb(4.313725%,3.529412%,50.588235%);fill-opacity:1;" d="M 7.347656 9.367188 C 7.371094 9.367188 7.398438 9.371094 7.410156 9.359375 C 7.496094 9.296875 7.589844 9.261719 7.6875 9.308594 C 7.742188 9.332031 7.785156 9.386719 7.835938 9.429688 C 7.890625 9.347656 7.972656 9.304688 8.078125 9.289062 C 8.265625 9.265625 8.410156 9.382812 8.421875 9.589844 C 8.429688 9.761719 8.421875 9.9375 8.425781 10.113281 C 8.425781 10.140625 8.425781 10.171875 8.425781 10.203125 C 8.351562 10.203125 8.285156 10.203125 8.210938 10.203125 C 8.210938 10.101562 8.210938 10.003906 8.210938 9.90625 C 8.210938 9.800781 8.210938 9.695312 8.207031 9.589844 C 8.203125 9.503906 8.15625 9.457031 8.078125 9.453125 C 7.992188 9.445312 7.925781 9.488281 7.90625 9.570312 C 7.898438 9.601562 7.898438 9.632812 7.898438 9.664062 C 7.898438 9.84375 7.898438 10.019531 7.898438 10.203125 C 7.828125 10.203125 7.761719 10.203125 7.6875 10.203125 C 7.6875 10.167969 7.6875 10.132812 7.6875 10.09375 C 7.6875 9.933594 7.6875 9.773438 7.683594 9.613281 C 7.683594 9.550781 7.671875 9.488281 7.601562 9.460938 C 7.535156 9.4375 7.46875 9.453125 7.417969 9.5 C 7.394531 9.523438 7.378906 9.5625 7.375 9.597656 C 7.371094 9.769531 7.375 9.945312 7.375 10.121094 C 7.375 10.148438 7.375 10.175781 7.375 10.203125 C 7.300781 10.203125 7.234375 10.203125 7.167969 10.203125 C 7.164062 10.1875 7.160156 10.171875 7.160156 10.15625 C 7.160156 9.875 7.160156 9.59375 7.160156 9.316406 C 7.277344 9.289062 7.316406 9.296875 7.347656 9.367188 Z M 7.347656 9.367188 "/>
<path style=" stroke:none;fill-rule:nonzero;fill:rgb(2.352941%,2.352941%,51.372549%);fill-opacity:1;" d="M 9.894531 9.199219 C 9.589844 9.015625 9.273438 9.183594 9.261719 9.535156 C 9.261719 9.605469 9.265625 9.675781 9.285156 9.738281 C 9.363281 9.996094 9.675781 10.105469 9.894531 9.953125 C 9.980469 9.890625 9.980469 9.890625 10.046875 9.96875 C 10.0625 9.984375 10.074219 10 10.089844 10.015625 C 9.910156 10.257812 9.488281 10.292969 9.242188 10.085938 C 8.972656 9.863281 8.949219 9.378906 9.191406 9.109375 C 9.414062 8.867188 9.835938 8.855469 10.070312 9.085938 C 9.996094 9.226562 9.964844 9.246094 9.894531 9.199219 Z M 9.894531 9.199219 "/>
<path style=" stroke:none;fill-rule:nonzero;fill:rgb(3.137255%,2.745098%,50.980392%);fill-opacity:1;" d="M 12.0625 9.34375 C 12.070312 9.367188 12.074219 9.386719 12.078125 9.398438 C 12.15625 9.363281 12.226562 9.320312 12.304688 9.300781 C 12.433594 9.261719 12.566406 9.316406 12.628906 9.433594 C 12.734375 9.636719 12.742188 9.84375 12.628906 10.042969 C 12.523438 10.222656 12.316406 10.269531 12.132812 10.164062 C 12.125 10.160156 12.117188 10.15625 12.097656 10.148438 C 12.097656 10.269531 12.097656 10.382812 12.097656 10.5 C 12.019531 10.5 11.957031 10.5 11.886719 10.5 C 11.886719 10.101562 11.886719 9.707031 11.886719 9.304688 C 11.945312 9.316406 12.007812 9.273438 12.0625 9.34375 M 12.351562 9.457031 C 12.332031 9.453125 12.3125 9.453125 12.292969 9.453125 C 12.167969 9.453125 12.089844 9.53125 12.089844 9.652344 C 12.089844 9.746094 12.089844 9.839844 12.09375 9.929688 C 12.09375 9.957031 12.105469 9.988281 12.125 10.007812 C 12.183594 10.066406 12.300781 10.082031 12.371094 10.035156 C 12.484375 9.960938 12.488281 9.839844 12.484375 9.722656 C 12.480469 9.621094 12.476562 9.511719 12.351562 9.457031 Z M 12.351562 9.457031 "/>
<path style=" stroke:none;fill-rule:nonzero;fill:rgb(3.137255%,2.745098%,50.980392%);fill-opacity:1;" d="M 10.28125 9.421875 C 10.4375 9.273438 10.617188 9.253906 10.804688 9.332031 C 10.992188 9.414062 11.054688 9.578125 11.050781 9.765625 C 11.046875 9.957031 10.972656 10.109375 10.789062 10.1875 C 10.605469 10.265625 10.375 10.210938 10.261719 10.070312 C 10.136719 9.914062 10.125 9.640625 10.238281 9.472656 C 10.25 9.453125 10.261719 9.441406 10.28125 9.421875 M 10.589844 10.058594 C 10.71875 10.058594 10.792969 10.015625 10.808594 9.898438 C 10.824219 9.800781 10.824219 9.699219 10.808594 9.601562 C 10.789062 9.5 10.714844 9.453125 10.613281 9.453125 C 10.503906 9.449219 10.425781 9.492188 10.40625 9.597656 C 10.386719 9.699219 10.390625 9.804688 10.402344 9.902344 C 10.414062 9.996094 10.480469 10.050781 10.589844 10.058594 Z M 10.589844 10.058594 "/>
<path style=" stroke:none;fill-rule:nonzero;fill:rgb(2.745098%,2.352941%,50.980392%);fill-opacity:1;" d="M 5.496094 9.855469 C 5.542969 10.074219 5.75 10.097656 5.886719 10.023438 C 6.011719 9.957031 6.019531 9.980469 6.085938 10.082031 C 5.96875 10.199219 5.820312 10.234375 5.660156 10.21875 C 5.480469 10.195312 5.355469 10.097656 5.304688 9.917969 C 5.25 9.730469 5.261719 9.550781 5.410156 9.402344 C 5.527344 9.285156 5.722656 9.257812 5.878906 9.324219 C 6.015625 9.382812 6.101562 9.535156 6.101562 9.707031 C 6.097656 9.765625 6.078125 9.796875 6.011719 9.792969 C 5.84375 9.789062 5.671875 9.792969 5.496094 9.792969 C 5.496094 9.8125 5.496094 9.832031 5.496094 9.855469 M 5.496094 9.640625 C 5.5 9.648438 5.503906 9.65625 5.507812 9.65625 C 5.640625 9.65625 5.773438 9.65625 5.90625 9.65625 C 5.898438 9.515625 5.828125 9.445312 5.695312 9.453125 C 5.59375 9.457031 5.535156 9.507812 5.496094 9.640625 Z M 5.496094 9.640625 "/>
<path style=" stroke:none;fill-rule:nonzero;fill:rgb(3.137255%,2.745098%,50.980392%);fill-opacity:1;" d="M 6.410156 9.328125 C 6.503906 9.316406 6.597656 9.289062 6.683594 9.300781 C 6.835938 9.316406 6.933594 9.421875 6.941406 9.570312 C 6.953125 9.777344 6.945312 9.988281 6.945312 10.199219 C 6.824219 10.222656 6.808594 10.214844 6.761719 10.121094 C 6.679688 10.152344 6.597656 10.199219 6.511719 10.214844 C 6.332031 10.253906 6.195312 10.136719 6.203125 9.964844 C 6.207031 9.863281 6.269531 9.796875 6.355469 9.765625 C 6.453125 9.730469 6.558594 9.714844 6.660156 9.691406 C 6.683594 9.6875 6.710938 9.6875 6.738281 9.683594 C 6.742188 9.609375 6.753906 9.53125 6.683594 9.480469 C 6.617188 9.429688 6.542969 9.445312 6.472656 9.476562 C 6.457031 9.480469 6.445312 9.488281 6.433594 9.496094 C 6.328125 9.554688 6.300781 9.542969 6.246094 9.417969 C 6.296875 9.386719 6.351562 9.359375 6.410156 9.328125 M 6.742188 9.929688 C 6.742188 9.894531 6.742188 9.863281 6.742188 9.804688 C 6.640625 9.828125 6.550781 9.839844 6.46875 9.871094 C 6.394531 9.898438 6.378906 10 6.4375 10.046875 C 6.519531 10.121094 6.71875 10.054688 6.742188 9.929688 Z M 6.742188 9.929688 "/>
<path style=" stroke:none;fill-rule:nonzero;fill:rgb(4.313725%,3.529412%,50.588235%);fill-opacity:1;" d="M 11.277344 9.304688 C 11.390625 9.304688 11.390625 9.304688 11.425781 9.445312 C 11.449219 9.417969 11.464844 9.394531 11.484375 9.375 C 11.542969 9.308594 11.613281 9.277344 11.703125 9.292969 C 11.738281 9.300781 11.765625 9.316406 11.753906 9.363281 C 11.753906 9.378906 11.75 9.394531 11.75 9.40625 C 11.757812 9.484375 11.726562 9.507812 11.648438 9.5 C 11.515625 9.484375 11.4375 9.570312 11.433594 9.703125 C 11.433594 9.871094 11.433594 10.035156 11.433594 10.203125 C 11.363281 10.203125 11.296875 10.203125 11.226562 10.203125 C 11.222656 10.183594 11.222656 10.164062 11.222656 10.148438 C 11.222656 9.886719 11.222656 9.628906 11.222656 9.371094 C 11.222656 9.335938 11.210938 9.296875 11.277344 9.304688 Z M 11.277344 9.304688 "/>
<path style=" stroke:none;fill-rule:nonzero;fill:rgb(3.529412%,2.745098%,50.980392%);fill-opacity:1;" d="M 5.1875 9.296875 C 5.261719 9.316406 5.222656 9.367188 5.226562 9.40625 C 5.234375 9.476562 5.210938 9.507812 5.128906 9.5 C 4.996094 9.484375 4.910156 9.566406 4.910156 9.703125 C 4.910156 9.871094 4.910156 10.035156 4.910156 10.203125 C 4.839844 10.203125 4.773438 10.203125 4.703125 10.203125 C 4.703125 9.90625 4.703125 9.609375 4.703125 9.316406 C 4.835938 9.277344 4.859375 9.292969 4.90625 9.445312 C 4.976562 9.347656 5.050781 9.269531 5.1875 9.296875 Z M 5.1875 9.296875 "/>
<path style=" stroke:none;fill-rule:nonzero;fill:rgb(0%,0%,0%);fill-opacity:1;" d="M 6.695312 7.894531 C 6.695312 7.550781 6.695312 7.214844 6.695312 6.875 C 6.695312 6.84375 6.691406 6.808594 6.734375 6.808594 C 6.746094 6.808594 6.769531 6.851562 6.769531 6.871094 C 6.769531 7.324219 6.769531 7.773438 6.769531 8.226562 C 6.769531 8.261719 6.765625 8.292969 6.726562 8.292969 C 6.714844 8.292969 6.699219 8.25 6.699219 8.230469 C 6.695312 8.121094 6.695312 8.011719 6.695312 7.894531 Z M 6.695312 7.894531 "/>
<path style=" stroke:none;fill-rule:nonzero;fill:rgb(0%,0%,0%);fill-opacity:1;" d="M 11.222656 8.636719 C 11.402344 8.636719 11.578125 8.636719 11.753906 8.636719 C 11.773438 8.636719 11.792969 8.648438 11.8125 8.652344 C 11.808594 8.664062 11.808594 8.671875 11.804688 8.679688 C 11.707031 8.679688 11.605469 8.679688 11.503906 8.679688 C 11.417969 8.679688 11.328125 8.679688 11.238281 8.679688 C 11.207031 8.679688 11.183594 8.675781 11.222656 8.636719 Z M 11.222656 8.636719 "/>
<path style=" stroke:none;fill-rule:nonzero;fill:rgb(0%,0%,0%);fill-opacity:1;" d="M 9.082031 6.769531 C 9.082031 6.730469 9.082031 6.695312 9.082031 6.65625 C 9.222656 6.65625 9.363281 6.65625 9.507812 6.65625 C 9.507812 6.753906 9.507812 6.855469 9.507812 6.957031 C 9.367188 6.957031 9.230469 6.957031 9.082031 6.957031 C 9.082031 6.898438 9.082031 6.839844 9.082031 6.769531 Z M 9.082031 6.769531 "/>
<path style=" stroke:none;fill-rule:nonzero;fill:rgb(0%,0%,0%);fill-opacity:1;" d="M 9.082031 7.390625 C 9.082031 7.300781 9.082031 7.214844 9.082031 7.128906 C 9.226562 7.128906 9.363281 7.128906 9.507812 7.128906 C 9.507812 7.226562 9.507812 7.320312 9.507812 7.421875 C 9.371094 7.421875 9.242188 7.421875 9.109375 7.421875 C 9.101562 7.421875 9.089844 7.40625 9.082031 7.390625 Z M 9.082031 7.390625 "/>
<path style=" stroke:none;fill-rule:nonzero;fill:rgb(96.862745%,60.784314%,14.509804%);fill-opacity:1;" d="M 11.378906 7.078125 C 11.367188 7.03125 11.351562 6.988281 11.347656 6.949219 C 11.347656 6.777344 11.347656 6.605469 11.347656 6.4375 C 11.347656 6.316406 11.410156 6.253906 11.53125 6.253906 C 11.765625 6.25 11.996094 6.25 12.226562 6.253906 C 12.355469 6.253906 12.433594 6.300781 12.429688 6.457031 C 12.425781 6.628906 12.425781 6.796875 12.429688 6.96875 C 12.433594 7.066406 12.363281 7.144531 12.253906 7.144531 C 12.015625 7.136719 11.773438 7.144531 11.53125 7.136719 C 11.480469 7.136719 11.429688 7.105469 11.378906 7.078125 Z M 11.378906 7.078125 "/>
<path style=" stroke:none;fill-rule:nonzero;fill:rgb(95.686275%,60%,15.294118%);fill-opacity:1;" d="M 3.640625 9.570312 C 3.640625 9.421875 3.640625 9.277344 3.640625 9.121094 C 3.765625 9.128906 3.886719 9.132812 4.003906 9.140625 C 4.019531 9.140625 4.035156 9.148438 4.046875 9.152344 C 4.238281 9.222656 4.332031 9.433594 4.285156 9.683594 C 4.25 9.890625 4.105469 10.011719 3.902344 10.015625 C 3.820312 10.015625 3.734375 10.015625 3.640625 10.015625 C 3.640625 9.867188 3.640625 9.722656 3.640625 9.570312 Z M 3.640625 9.570312 "/>
<path style=" stroke:none;fill-rule:nonzero;fill:rgb(94.117647%,58.823529%,16.078431%);fill-opacity:1;" d="M 12.355469 9.457031 C 12.476562 9.511719 12.480469 9.621094 12.484375 9.722656 C 12.488281 9.839844 12.484375 9.960938 12.371094 10.035156 C 12.300781 10.082031 12.183594 10.066406 12.125 10.007812 C 12.105469 9.988281 12.09375 9.957031 12.09375 9.929688 C 12.089844 9.839844 12.089844 9.746094 12.089844 9.652344 C 12.089844 9.53125 12.167969 9.453125 12.292969 9.453125 C 12.3125 9.453125 12.332031 9.453125 12.355469 9.457031 Z M 12.355469 9.457031 "/>
<path style=" stroke:none;fill-rule:nonzero;fill:rgb(94.901961%,59.607843%,15.686275%);fill-opacity:1;" d="M 10.582031 10.058594 C 10.480469 10.050781 10.414062 9.996094 10.402344 9.902344 C 10.390625 9.804688 10.386719 9.699219 10.40625 9.597656 C 10.425781 9.492188 10.503906 9.449219 10.613281 9.453125 C 10.714844 9.453125 10.789062 9.5 10.808594 9.601562 C 10.824219 9.699219 10.824219 9.800781 10.808594 9.898438 C 10.792969 10.015625 10.71875 10.058594 10.582031 10.058594 Z M 10.582031 10.058594 "/>
<path style=" stroke:none;fill-rule:nonzero;fill:rgb(94.117647%,58.823529%,16.078431%);fill-opacity:1;" d="M 5.5 9.636719 C 5.535156 9.507812 5.59375 9.457031 5.695312 9.453125 C 5.828125 9.445312 5.898438 9.515625 5.90625 9.65625 C 5.773438 9.65625 5.640625 9.65625 5.507812 9.65625 C 5.503906 9.65625 5.5 9.648438 5.5 9.636719 Z M 5.5 9.636719 "/>
<path style=" stroke:none;fill-rule:nonzero;fill:rgb(93.72549%,58.823529%,16.078431%);fill-opacity:1;" d="M 6.742188 9.933594 C 6.71875 10.054688 6.519531 10.121094 6.4375 10.046875 C 6.378906 10 6.394531 9.898438 6.46875 9.871094 C 6.550781 9.839844 6.640625 9.828125 6.742188 9.804688 C 6.742188 9.863281 6.742188 9.894531 6.742188 9.933594 Z M 6.742188 9.933594 "/>
</g>
</svg>
